<?xml version="1.0" encoding="iso-8859-1"?>
<!-- Generator: Adobe Illustrator 19.0.0, SVG Export Plug-In . SVG Version: 6.00 Build 0)  -->
<svg version="1.1" id="Layer_1" xmlns="http://www.w3.org/2000/svg" xmlns:xlink="http://www.w3.org/1999/xlink"  width="43" height="31" x="0px" y="0px"
	 viewBox="0 0 512.002 512.002" style="enable-background:new 0 0 512.002 512.002;" xml:space="preserve">
<path style="fill:#11a8ff;" d="M256,449.122c-7.823,0-14.166-6.342-14.166-14.166V350.34c0-7.824,6.344-14.166,14.166-14.166
	c7.823,0,14.166,6.342,14.166,14.166v84.617C270.166,442.78,263.822,449.122,256,449.122z"/>
<path style="fill:#a7d6f1;" d="M286.85,362.907L256,394.254l-30.85-31.347c-11.33-11.513-3.175-30.984,12.979-30.984h35.741
	C290.024,331.922,298.18,351.392,286.85,362.907z"/>
<g>
	<path style="fill:#11a8ff;" d="M256,408.42c-3.797,0-7.434-1.524-10.096-4.23l-30.85-31.347
		c-9.178-9.326-11.842-23.151-6.786-35.22c5.055-12.068,16.777-19.867,29.861-19.867h35.741c13.084,0,24.807,7.799,29.861,19.867
		c5.056,12.07,2.393,25.893-6.784,35.22l-30.851,31.347C263.434,406.897,259.796,408.42,256,408.42z M238.129,346.088
		c-2.223,0-3.255,1.35-3.73,2.482c-0.475,1.132-0.713,2.815,0.849,4.399L256,374.057l20.754-21.088
		c1.56-1.585,1.322-3.268,0.847-4.399c-0.475-1.132-1.506-2.482-3.73-2.482H238.129z"/>
	<path style="fill:#11a8ff;" d="M256,463.864c-49.548,0-99.81-14.428-145.354-41.724C65.364,395,27.758,356.962,1.895,312.139
		c-2.309-4.002-2.52-8.879-0.567-13.068c1.954-4.188,5.825-7.16,10.377-7.963l28.355-5.004c7.691-1.364,15.053,3.782,16.412,11.489
		c1.36,7.705-3.784,15.053-11.489,16.412l-7.595,1.34C87.202,387.933,172.644,435.53,256.001,435.53
		c83.364,0,168.804-47.597,218.612-120.187l-7.587-1.337c-7.704-1.359-12.849-8.707-11.492-16.41
		c1.359-7.704,8.699-12.85,16.412-11.492l28.35,4.998c4.55,0.802,8.423,3.774,10.378,7.961c1.953,4.188,1.741,9.065-0.567,13.068
		c-25.859,44.828-63.463,82.867-108.746,110.007C355.814,449.436,305.549,463.864,256,463.864z"/>
	<path style="fill:#11a8ff;" d="M435.203,263.588c-7.823,0-14.166-6.342-14.166-14.166v-6.243
		c0-91.001-74.036-165.037-165.037-165.037S90.963,152.176,90.963,243.179v6.243c0,7.824-6.344,14.166-14.166,14.166
		s-14.166-6.342-14.166-14.166v-6.243c0-106.624,86.744-193.37,193.37-193.37s193.37,86.744,193.37,193.37v6.243
		C449.369,257.246,443.026,263.588,435.203,263.588z"/>
</g>
<path style="fill:#a7d6f1;" d="M179.475,81.101L85.959,62.817c-18.274-3.573-34.574,12.036-31.795,30.448l22.631,149.91
	C76.798,171.583,118.787,109.806,179.475,81.101z"/>
<path style="fill:#11a8ff;" d="M76.784,257.341c-6.946,0-12.942-5.079-13.995-12.053L40.158,95.379
	c-1.789-11.85,1.659-23.846,9.459-32.911c7.835-9.107,19.167-14.331,31.088-14.331c2.656,0,5.339,0.262,7.974,0.776L182.195,67.2
	c6.007,1.174,10.579,6.073,11.339,12.146c0.759,6.073-2.468,11.946-8,14.563c-57.448,27.171-94.568,85.763-94.57,149.266
	c0,7.413-5.715,13.573-13.107,14.127C77.498,257.328,77.139,257.341,76.784,257.341z M80.705,76.47
	c-3.661,0-7.164,1.632-9.612,4.478c-1.417,1.648-3.682,5.164-2.921,10.203l11.092,73.469c4.033-9.064,8.779-17.84,14.216-26.253
	c12.67-19.605,28.67-36.647,47.191-50.418L83.242,76.72C82.394,76.554,81.539,76.47,80.705,76.47z"/>
<path style="fill:#a7d6f1;" d="M332.523,81.101c60.664,28.692,102.64,90.429,102.677,161.981c0.006,0-0.004,0,0.001,0
	l22.629-149.817c2.781-18.413-13.519-34.023-31.793-30.45L332.523,81.101z"/>
<path style="fill:#11a8ff;" d="M435.214,257.25c-0.145,0-0.288-0.001-0.432-0.007c-2.427-0.071-4.698-0.751-6.669-1.893
	c-1.463-0.847-2.76-1.948-3.828-3.24c-1.568-1.894-2.653-4.205-3.066-6.74c-0.12-0.742-0.184-1.504-0.184-2.279
	c-0.034-63.469-37.155-122.028-94.57-149.184c-5.532-2.617-8.76-8.491-8-14.563c0.759-6.073,5.332-10.972,11.339-12.146
	l93.514-18.284c2.635-0.516,5.318-0.776,7.974-0.776c11.922,0,23.254,5.225,31.089,14.333c7.8,9.066,11.245,21.062,9.456,32.912
	l-22.591,149.573c-0.258,1.948-0.911,3.77-1.876,5.385c-0.585,0.98-1.283,1.881-2.075,2.685c-2.009,2.039-4.631,3.472-7.566,4.001
	C436.91,257.172,436.068,257.25,435.214,257.25z M371.327,87.949c18.51,13.763,34.499,30.789,47.165,50.379
	c5.446,8.42,10.197,17.204,14.236,26.278l11.095-73.456c0.761-5.04-1.503-8.556-2.92-10.203c-3.007-3.495-7.585-5.115-12.149-4.229
	L371.327,87.949z"/>
<path style="fill:#a7d6f1;" d="M371.741,270.139c21.054-21.054,21.054-55.19,0-76.246l-76.246,76.246
	C316.549,291.193,350.686,291.193,371.741,270.139z"/>
<path style="fill:#11a8ff;" d="M333.617,300.095c-18.184,0-35.28-7.082-48.138-19.94c-5.532-5.532-5.532-14.502,0-20.034
	l76.244-76.244c5.533-5.531,14.501-5.532,20.035,0c12.859,12.859,19.94,29.955,19.94,48.14s-7.082,35.281-19.94,48.14
	C368.899,293.014,351.802,300.095,333.617,300.095z M317.358,268.309c5.047,2.264,10.561,3.454,16.259,3.454
	c10.618,0,20.599-4.134,28.106-11.642c7.508-7.508,11.643-17.49,11.643-28.106c0-5.698-1.191-11.213-3.454-16.26L317.358,268.309z"
	/>
<path style="fill:#a7d6f1;" d="M140.258,270.139c-21.054-21.054-21.054-55.19,0-76.246l76.246,76.246
	C195.45,291.193,161.314,291.193,140.258,270.139z"/>
<path style="fill:#11a8ff;" d="M178.383,300.095c-18.185,0-35.281-7.082-48.14-19.94c-12.859-12.857-19.94-29.955-19.94-48.138
	s7.082-35.281,19.94-48.14c5.535-5.532,14.502-5.531,20.035,0l76.244,76.244c5.532,5.532,5.532,14.502,0,20.034
	C213.662,293.013,196.567,300.095,178.383,300.095z M142.089,215.756c-2.264,5.047-3.454,10.562-3.454,16.26
	c0,10.616,4.135,20.598,11.643,28.104c7.507,7.508,17.488,11.642,28.106,11.642c5.696,0,11.211-1.19,16.259-3.454L142.089,215.756z"
	/>
<g>
</g>
<g>
</g>
<g>
</g>
<g>
</g>
<g>
</g>
<g>
</g>
<g>
</g>
<g>
</g>
<g>
</g>
<g>
</g>
<g>
</g>
<g>
</g>
<g>
</g>
<g>
</g>
<g>
</g>
</svg>
